<svg id="Layer_1" data-name="Layer 1" xmlns="http://www.w3.org/2000/svg" viewBox="0 0 534.53 318.7">
  <defs>
    <style>
      .cls-1 {
        fill: #fff;
        fill-opacity: 0.7;
        stroke: #fff;
        stroke-miterlimit: 10;
      }
    </style>
  </defs>
  <title>footer-monkees</title>
  <g>
    <path class="cls-1" d="M40.06,244.93a83.64,83.64,0,0,1-14.63-23.69c-6.66-16.07-8.93-32.9-8.42-50.18a3.32,3.32,0,0,0-1.69-3.45c-6.3-4.08-4.64-12.37.79-14.52,2-.77,2.58-2.06,2.83-4.17C22.44,119.66,34.3,95,59,77.71c3.43-2.4,7.24-4.26,10.9-6.33a24.72,24.72,0,0,1,2.78-1.11C63,121.91,60.58,173.6,61,225.49l.63.08c.21-1.84.42-3.67.61-5.51s.33-3.69.53-5.53c2.57-24,4.61-48.14,7.87-72.08,3.18-23.34,7.41-46.54,11.6-69.73,1.5-8.29,0-6.27,8.16-8.16a81.45,81.45,0,0,1,36.33-.49c1,.22,1.93.48,3.12.77a9.91,9.91,0,0,1-.69,1.47C121.06,78,116.53,91.1,114.52,105c-3.09,21.41-5.68,42.9-8.23,64.38-1.64,13.8-3.22,27.63-4.13,41.48-1.06,16.21-2,32.5,1.65,48.58.62,2.69,1.5,5.32,2.32,8.2a58.65,58.65,0,0,1-19.55.47c-4.4-.64-4.54-.73-4.33-5.21,1.25-25.75,1.78-51.55,4.07-77.21,2.45-27.4,6.56-54.66,10-82,.38-3.08,1-6.12,1.64-9.63-3.43,5.41-11.3,49.47-16,85.07-3.78,28.59-6.06,57.26-7.06,86.5a81.2,81.2,0,0,1-8.9-3.29c-5.46-2.75-10.77-5.82-16.14-8.77-1.69-.94-2.29-2.43-2.49-4.35A502.54,502.54,0,0,1,45,183.59c.64-23,2.46-45.93,5.14-68.78a3.16,3.16,0,0,0-.26-1.74C35.93,156,35.08,199.9,40.06,244.93Z"/>
    <path class="cls-1" d="M173.68,125.39a497.71,497.71,0,0,1-6.83,75.46,344.45,344.45,0,0,1-7.63,34.49c-2.68,9.74-7.84,18.44-16.47,24.15a52.32,52.32,0,0,1-14,6c-5.43,1.6-10.08-.52-13.58-5-3.31-4.24-4.38-9.22-4.79-14.4-1.22-15.27-.17-30.48,1.24-45.68,1.06-11.49,1.89-23,3.38-34.46,3-22.94,4.44-46.13,10.1-68.67a150.47,150.47,0,0,1,4.52-14.71c2.58-7.06,9.23-11.8,15.69-11.46,4.6.24,8.59,2.19,12.34,4.74,9.28,6.33,14,15.36,14.93,26.31C173.21,109.9,173.32,117.65,173.68,125.39ZM153.28,114c-.35-3.46-.6-6.9-1.07-10.31-.33-2.32-3.13-5.37-4.68-5.08-2.42.46-2.59,2.79-3.28,4.63a4,4,0,0,0-.1.5c-4,17-6,34.31-8,51.62q-3.3,28.73-6.35,57.48c-.82,7.86-1.24,15.76-1.7,23.64-.1,1.6-.06,3.48,1.93,4.29a4,4,0,0,0,4.91-1.6c1.8-2.76,3.67-5.73,4.43-8.88a171.78,171.78,0,0,0,3.26-18.89q3.41-27.56,6.46-55.17C150.67,142.18,151.9,128.09,153.28,114Z"/>
    <path class="cls-1" d="M213,177.55c.82-7.16,1.87-14.3,2.4-21.47a246.24,246.24,0,0,0-5.33-74.81,4.26,4.26,0,0,1,.3-2.87c4.17-6.92,10.58-10.88,18.08-13.3a6,6,0,0,1,1.42,0c5.8,46.86,2,93-9.39,139-1.62-.74-3-1.37-4.3-2-5-2.28-9-1.6-12.75,2.58-2.46,2.76-4.56,5.84-6.82,8.77a4,4,0,0,1-1.27,1.09,386.67,386.67,0,0,0,.43-86l-.89,0c0,4.64.13,9.27,0,13.9a548,548,0,0,1-5.2,60.14c-1,7.08-2.34,14.11-3.59,21.15a5.19,5.19,0,0,1-1.14,2.72c-7.17,6.84-14.41,13.6-22.12,20.07,7.22-25.9,11.32-52.16,14.24-78.61,2.93-26.64,3-53.28-1.06-80.42,10.38,8.6,19.58,7.85,27.7-3.44,4.67,15.75,6.64,31.15,7.38,46.71s1.13,31.11,1.67,46.66Z"/>
    <path class="cls-1" d="M253.65,213c-.49-18.14-1-36.19-1.46-54.25-3.92,17.44-4.58,35.24-6.38,53.1a23.57,23.57,0,0,1-17.73-4.07c-.43-.3-.53-1.5-.35-2.17,5-18.76,8-37.86,10.34-57.11a369.11,369.11,0,0,0,.87-79.19c-.17-1.82-.28-3.65-.45-5.79a48.74,48.74,0,0,1,34.85,15.25C260,92.53,255.64,109.63,254.45,128c4.36-15.07,11-28.65,24.63-38.35,11.3,17.86,12.07,37.29,10.22,57.57-2.44-.53-4.57-.93-6.66-1.46-11.17-2.79-19.91,8.41-17.28,17.85,2.35,8.42,6.51,15.09,15.33,17.44,3.32.9,7,.51,10.52.65a19.28,19.28,0,0,0,2.47-.24C293.17,195.25,273.5,214.9,253.65,213Z"/>
    <path class="cls-1" d="M448.11,121.2c-2.28-12.73-10.45-11.56-19.73-7.78l7.44-17.06a18.19,18.19,0,0,1,2.36.76c10.2,4.7,20.88,5.28,31.89,4.31,6.85-.61,13.78-.34,20.68-.51a72.82,72.82,0,0,0,7.53-.47c.88-.11,1.67-1,2.5-1.48,0-.33,0-.67-.07-1a55.91,55.91,0,0,0-6.56-2.06c-7.53-1.39-15.1-.88-22.67-.25-9.06.76-18.13,1.75-27.17-.24-.9-.2-1.81-.41-2.69-.67-6.6-2-9.12-7.63-6.08-13.93a21.24,21.24,0,0,1,2.92-4.07,28.26,28.26,0,0,1,2.35-2.29c3-2.86,6.9-5.45,2.38-10.46l.68-.28,12.41,2.93a44.45,44.45,0,0,1-4.54-4.36,7.3,7.3,0,0,1-1.74-4,7,7,0,0,1,1.63-4.61c1.71-1.63,3.76-.81,5.32.8,3.76-2.2,5.29-2.27,7.07-.4,2.28,2.39,2.16,5.54-.43,8.06-1.63,1.57-3.42,3-5.65,4.89a83.07,83.07,0,0,0,28.43.17,55.34,55.34,0,0,0,25.44-10.93l.58.42c-.34,1-.63,2-1,3-1.41,3.64-.94,4.57,1.73,7.28a134.21,134.21,0,0,1,9.23,10.67c.67.84.59,2.29.93,3.76-5.81-1.61-11.09-3.26-16.46-4.53-15.5-3.63-30.92-2.79-46.21,1.34-1.39.37-2.59,1.48-3.88,2.25,1.53.6,3.08,1.76,4.58,1.71,8.58-.33,17.15-1,25.73-1.43,9.23-.42,18.36.14,27,4,4.88,2.18,6.86,5.54,6.34,10.83a12,12,0,0,1-.31,2c-1.89,6.69-1.15,13,2.91,18.73.07.1,0,.31-.06.92C497.45,106.89,472.6,107.84,448.11,121.2Z"/>
    <path class="cls-1" d="M360.07,114.14c1.24,6.9-3.54,15.43-9.77,17-17.82,4.61-35.7,9-53.88,13.55.37-17.52.39-35-8.54-51,.42-.19.63-.38.83-.37,11.11.43,21.93-2,32.86-3.32,9.28-1.09,18.53-2.42,27.8-3.6a23.53,23.53,0,0,1,4.28-.11,6.88,6.88,0,0,1,6.85,5.32,30.7,30.7,0,0,1,0,16.71c-.55,2.14-2.33,2.86-4.38,3.21-12.43,2.14-24.85,4.37-37.3,6.44-1.72.29-2.17,1.07-2.43,2.54-1.07,6.2.54,7.9,6.61,6.75,3.31-.62,6.6-1.34,9.88-2.09s5.63-2.47,6.5-5.94a2.7,2.7,0,0,1,1.71-1.65C347.31,116.38,353.6,115.3,360.07,114.14Zm-43.26-5c7.87-1.35,15.8-2.65,23.69-4.15a3.08,3.08,0,0,0,1.76-2.36c0-1.8-1.56-2-3-1.75-6.86,1.15-13.73,2.3-20.57,3.59C316.4,105,315.91,106.31,316.81,109.18Z"/>
    <path class="cls-1" d="M425.92,102.55c-.46,6.13-4.85,11.69-10.51,13.08-17,4.19-34,8.3-51,12.44a13.71,13.71,0,0,1-1.5.14c4-14.31,5.16-28.59,2.49-43.48,3.55-.49,7-1,10.45-1.42,15.45-2,30.9-3.94,46.34-6,7.59-1,9.17.34,8.58,7.94-.25,3.18-1,6.31-1.38,9.48-.42,3.33-2.46,4.62-5.55,5.07-6.5,1-13,2-19.45,3.1-6.14,1-12.26,2.19-18.43,3-2.25.3-2.38,1.83-2.3,3.14a3.76,3.76,0,0,0,1.95,2.72c3.57,1.41,13.56-1.54,16.15-4.46a3.66,3.66,0,0,1,1.79-1.2c7.12-1.27,14.26-2.45,21.39-3.65A4.51,4.51,0,0,1,425.92,102.55Zm-39.66-5.74c6.45-1,12.43-1.93,18.41-2.84,1.19-.18,2.57-.2,2.39-1.89-.16-1.53-1.2-2-2.72-1.8-4.58.64-9.17,1.21-13.75,1.83-1.33.18-2.82.14-3.93.75-.78.43-1.19,1.75-1.46,2.76C385.11,96,386,96.55,386.26,96.81Z"/>
    <path class="cls-1" d="M181.07,50.45c-.58,2.84-1.13,5.55-1.7,8.36,2.47-.21,4.29-.41,6.11-.5,1.49-.07,2-.76,1.55-2.12-.65-1.89-1.39-3.74-2.09-5.62,4.68-1,5.35-.69,5.84,3.81a148.56,148.56,0,0,1,.82,15.07c0,3.78-.22,3.79-4.11,3.67-.4,0-.81-.06-1.51-.11.53-2.15,1.11-4.12,1.5-6.13.68-3.42.08-4.7-2.1-4.88-3.37-.29-6,1.69-5.86,4.69a62.81,62.81,0,0,0,.85,6.25.18.18,0,0,1-.11.07c-5,.57-5.18.57-5.18-4.44,0-4.7.22-9.41.54-14.1C175.92,50,176.25,49.84,181.07,50.45Z"/>
    <path class="cls-1" d="M209.09,50.22,207,54.64c-1.14-.39-2-.79-3-1-2.38-.56-4.53.59-5,2.62s.19,2.65,2.2,2.13c1.48-.39,3-.7,5.23-1.22l-2,5.43c-2.28-.68-4.56-1-5.42,1.35-.48,1.32-.31,3.63.56,4.57,2.31,2.48,4.78.36,7.56-.77.71,1.69,1.42,3.37,2.27,5.41-4.8,0-9.09.06-13.36-.08a2.32,2.32,0,0,1-1.55-1.66q.65-9.8,1.65-19.57a2.45,2.45,0,0,1,1.78-1.54C201.4,50.14,204.92,50.22,209.09,50.22Z"/>
    <path class="cls-1" d="M168,73.13a16.22,16.22,0,0,1-4.1-.09A2.73,2.73,0,0,1,162.4,71c0-4.27.18-8.54.37-12.81.06-1.32.34-2.62.51-3.93l-.54-.58-5.91,3.18c-.72-3.89.47-6.08,4.12-6.53a33.41,33.41,0,0,1,9,0c4.26.64,4.6,1.8,2.27,5.51a1.2,1.2,0,0,1-.47,0L168.32,54c-.52,1.26-1.52,2.53-1.49,3.78.1,4.51.53,9,.86,13.53A17.39,17.39,0,0,0,168,73.13Z"/>
    <path class="cls-1" d="M477.69,67.83c-1.9-1.63-3.86-3.08-5.54-4.81a8,8,0,0,1-1.86-3.48,5,5,0,0,1,1.9-5.62c2-1.42,3.82-.25,5.52,1.28.32-.22.65-.42,1-.66,2.1-1.62,4.16-1.74,5.72-.34a4.48,4.48,0,0,1,.58,6,58,58,0,0,1-5,5.27C479.24,66.17,478.57,66.9,477.69,67.83Z"/>
    <path class="cls-1" d="M499.93,126.15c-1.92,1.76-3.81,2.26-5.75.48a4.59,4.59,0,0,1-.31-6.22c1.71-2.36,3.78-4.45,5.91-6.93a77.83,77.83,0,0,1,6.1,6.08,9,9,0,0,1,1.66,4.37,3.65,3.65,0,0,1-2.41,4C503,128.81,501.36,128.13,499.93,126.15Z"/>
    <path class="cls-1" d="M496.41,63.93c-2.07-1.82-4.05-3.37-5.79-5.16a4.71,4.71,0,0,1-.78-5.81c1.54-3,3.91-3.25,7.26-.77,2.23-2.2,3.92-2.54,5.62-1.14a4.56,4.56,0,0,1,.38,6.56C501.18,59.79,498.87,61.64,496.41,63.93Z"/>
    <path class="cls-1" d="M466.8,114.3c2,2.7,4.17,5,5.66,7.75a4.58,4.58,0,0,1-.73,4.23c-.85.89-2.8.74-4.27,1a17,17,0,0,1-2.13.29c-1.49.09-3.15.56-4.43.07a3.42,3.42,0,0,1-1.95-4.42,12.21,12.21,0,0,1,2.46-4.26A60.94,60.94,0,0,1,466.8,114.3Z"/>
    <path class="cls-1" d="M482.21,125.72c-2.6,2-4.64,2.16-6.22.63s-1.74-4.18,0-6.44,3.87-4.41,4.87-5.53a69.78,69.78,0,0,1,6.8,5.11c2.16,2.06,2.14,4.1.52,6C486.75,127.21,484.9,127.29,482.21,125.72Z"/>
  </g>
</svg>
