<svg xmlns="http://www.w3.org/2000/svg" viewBox="0 0 513.17 219.65">
  <defs>
    <style>
      .cls-1 {
        fill: #fff;
        fill-opacity: 0.7;
        stroke: #fff;
        stroke-miterlimit: 10;
      }
    </style>
  </defs>
  <title>Asset 1</title>
  <g id="Layer_2" data-name="Layer 2">
    <g id="Layer_1-2" data-name="Layer 1">
      <g>
        <path class="cls-1" d="M29.29,195.41a84,84,0,0,1-14.62-23.7C8,155.64,5.73,138.81,6.25,121.54a3.36,3.36,0,0,0-1.7-3.46c-6.3-4.07-4.64-12.36.79-14.51,2-.78,2.58-2.07,2.83-4.18,3.5-29.25,15.36-53.88,40.05-71.2,3.43-2.41,7.24-4.26,10.9-6.34a28.17,28.17,0,0,1,2.78-1.1C52.19,72.39,49.81,124.08,50.2,176l.64.07c.2-1.83.42-3.67.61-5.5s.32-3.7.52-5.54c2.57-24,4.61-48.13,7.88-72.07C63,69.59,67.26,46.38,71.45,23.2c1.5-8.29,0-6.28,8.15-8.16a81.46,81.46,0,0,1,36.33-.49c1,.21,1.93.47,3.13.77a12.24,12.24,0,0,1-.7,1.47c-8.07,11.67-12.6,24.79-14.6,38.65-3.1,21.41-5.69,42.89-8.24,64.38-1.64,13.79-3.21,27.62-4.12,41.48-1.07,16.21-2,32.5,1.65,48.57.61,2.69,1.49,5.33,2.31,8.2a58.65,58.65,0,0,1-19.55.48c-4.39-.65-4.54-.74-4.32-5.22,1.24-25.74,1.78-51.55,4.07-77.2,2.44-27.41,6.55-54.67,10-82,.39-3.07,1-6.11,1.64-9.63-3.42,5.41-11.3,49.47-16,85.08-3.78,28.58-6.06,57.26-7.06,86.5a84.5,84.5,0,0,1-8.89-3.29C49.74,210.05,44.43,207,39.07,204c-1.7-.93-2.29-2.42-2.49-4.34a501,501,0,0,1-2.39-65.62c.65-23,2.47-45.92,5.14-68.77a3.24,3.24,0,0,0-.25-1.74C25.16,106.46,24.31,150.37,29.29,195.41Z"/>
        <path class="cls-1" d="M162.91,75.86a496.55,496.55,0,0,1-6.82,75.47,344.3,344.3,0,0,1-7.64,34.48c-2.68,9.74-7.84,18.44-16.47,24.15a52.2,52.2,0,0,1-14,6c-5.43,1.59-10.08-.52-13.58-5-3.31-4.23-4.37-9.22-4.79-14.4-1.21-15.27-.17-30.48,1.24-45.68,1.07-11.49,1.89-23,3.39-34.45,3-22.95,4.43-46.13,10.1-68.68a148.6,148.6,0,0,1,4.52-14.71c2.57-7,9.22-11.8,15.68-11.45,4.6.24,8.6,2.19,12.34,4.74,9.29,6.32,14,15.35,14.93,26.31C162.44,60.37,162.55,68.13,162.91,75.86Zm-20.4-11.38c-.35-3.46-.6-6.9-1.07-10.31-.32-2.32-3.13-5.37-4.67-5.08-2.43.47-2.59,2.8-3.29,4.64a2.65,2.65,0,0,0-.09.49c-4,17-6,34.32-8,51.62q-3.32,28.72-6.35,57.48c-.82,7.86-1.25,15.76-1.71,23.65-.09,1.59-.06,3.47,1.93,4.28a4,4,0,0,0,4.91-1.59c1.81-2.77,3.68-5.74,4.43-8.88a167.56,167.56,0,0,0,3.26-18.89q3.4-27.57,6.46-55.17C139.9,92.66,141.14,78.57,142.51,64.48Z"/>
        <path class="cls-1" d="M202.27,128c.81-7.15,1.86-14.29,2.4-21.47a246.29,246.29,0,0,0-5.34-74.81,4.18,4.18,0,0,1,.31-2.86C203.8,22,210.21,18,217.72,15.57a6.7,6.7,0,0,1,1.41,0c5.81,46.86,2,93-9.39,139l-4.3-2c-5-2.27-9-1.59-12.75,2.59-2.46,2.75-4.55,5.84-6.82,8.77a4,4,0,0,1-1.27,1.09,386.16,386.16,0,0,0,.43-86h-.89c0,4.63.14,9.27,0,13.9a547.82,547.82,0,0,1-5.2,60.13c-1,7.08-2.34,14.12-3.59,21.16a5.15,5.15,0,0,1-1.14,2.71c-7.16,6.85-14.41,13.61-22.12,20.08,7.22-25.91,11.32-52.16,14.24-78.61,2.94-26.64,3-53.28-1.06-80.42,10.39,8.6,19.58,7.84,27.71-3.44,4.67,15.74,6.63,31.15,7.38,46.71s1.12,31.1,1.67,46.66Z"/>
        <path class="cls-1" d="M242.88,163.43q-.74-27.21-1.46-54.25c-3.92,17.43-4.58,35.23-6.37,53.1a23.59,23.59,0,0,1-17.74-4.08c-.42-.29-.52-1.5-.34-2.17,5-18.76,8-37.86,10.33-57.1a369.21,369.21,0,0,0,.87-79.2c-.17-1.82-.28-3.64-.45-5.78a48.79,48.79,0,0,1,34.86,15.24C249.2,43,244.88,60.11,243.69,78.43c4.35-15.07,11-28.64,24.63-38.35C279.61,58,280.38,77.37,278.54,97.65c-2.45-.53-4.57-.93-6.67-1.45C260.7,93.41,252,104.61,254.59,114c2.35,8.42,6.51,15.09,15.33,17.45,3.33.89,7,.5,10.52.64a17.63,17.63,0,0,0,2.47-.24C282.4,145.72,262.73,165.38,242.88,163.43Z"/>
        <path class="cls-1" d="M437.35,71.68c-2.28-12.73-10.46-11.56-19.74-7.79l7.44-17a19.26,19.26,0,0,1,2.37.75c10.19,4.71,20.87,5.29,31.88,4.31,6.86-.6,13.79-.34,20.68-.51a72.64,72.64,0,0,0,7.53-.46c.88-.11,1.67-1,2.5-1.48,0-.34-.05-.67-.07-1a53.48,53.48,0,0,0-6.56-2c-7.52-1.4-15.1-.89-22.66-.25-9.07.75-18.14,1.74-27.18-.25-.9-.2-1.8-.4-2.69-.66-6.59-1.95-9.12-7.63-6.08-13.93a22.21,22.21,0,0,1,2.92-4.08,28.28,28.28,0,0,1,2.36-2.28c3-2.86,6.89-5.45,2.38-10.46l.67-.28,12.41,2.93A44.32,44.32,0,0,1,441,12.77a7.19,7.19,0,0,1-1.74-4.06,6.89,6.89,0,0,1,1.62-4.6c1.71-1.64,3.76-.81,5.32.79,3.76-2.19,5.29-2.27,7.08-.4,2.27,2.39,2.16,5.55-.44,8.06-1.62,1.57-3.41,3-5.65,4.89a82.82,82.82,0,0,0,28.43.17A55.23,55.23,0,0,0,501,6.69l.58.43c-.33,1-.62,2.05-1,3-1.41,3.64-.93,4.57,1.74,7.27a138,138,0,0,1,9.22,10.67c.68.85.6,2.3.93,3.77-5.8-1.61-11.08-3.27-16.46-4.53-15.5-3.64-30.92-2.8-46.2,1.33-1.4.38-2.6,1.48-3.88,2.25,1.52.6,3.07,1.77,4.57,1.71,8.59-.32,17.15-1,25.73-1.42,9.24-.42,18.37.13,27,4,4.87,2.19,6.85,5.54,6.33,10.83a11.25,11.25,0,0,1-.31,2c-1.89,6.69-1.15,13,2.92,18.72.07.1,0,.31-.07.93C486.69,57.37,461.84,58.31,437.35,71.68Z"/>
        <path class="cls-1" d="M349.3,64.61c1.24,6.9-3.54,15.44-9.76,17-17.83,4.62-35.71,9-53.89,13.55.37-17.51.39-35-8.54-51,.42-.19.63-.38.84-.37,11.1.42,21.92-2,32.86-3.32,9.27-1.09,18.52-2.43,27.79-3.61a24.56,24.56,0,0,1,4.29-.11,6.91,6.91,0,0,1,6.85,5.33,30.7,30.7,0,0,1,0,16.71c-.55,2.14-2.33,2.85-4.38,3.2-12.44,2.14-24.86,4.38-37.31,6.45-1.72.28-2.17,1.07-2.42,2.53-1.07,6.21.54,7.91,6.61,6.76,3.3-.63,6.59-1.35,9.87-2.1s5.63-2.46,6.51-5.94a2.68,2.68,0,0,1,1.7-1.65C336.54,66.86,342.84,65.77,349.3,64.61Zm-43.25-5c7.87-1.35,15.79-2.65,23.68-4.15a3.07,3.07,0,0,0,1.76-2.36c0-1.8-1.56-2-3-1.75C321.66,52.55,314.79,53.69,308,55,305.64,55.42,305.14,56.79,306.05,59.66Z"/>
        <path class="cls-1" d="M415.16,53c-.46,6.13-4.86,11.68-10.51,13.08-17,4.19-34,8.3-51,12.44a14.74,14.74,0,0,1-1.5.13c4-14.3,5.17-28.59,2.5-43.48,3.54-.48,7-1,10.44-1.41,15.45-2,30.9-3.95,46.34-6,7.59-1,9.18.34,8.58,7.94-.25,3.17-1,6.31-1.38,9.47-.42,3.33-2.45,4.63-5.55,5.08-6.5.94-13,2-19.45,3.09-6.14,1-12.26,2.2-18.43,3-2.24.3-2.38,1.84-2.3,3.15a3.79,3.79,0,0,0,2,2.72c3.57,1.41,13.56-1.54,16.16-4.46a3.46,3.46,0,0,1,1.78-1.2c7.12-1.27,14.26-2.46,21.4-3.65A4.58,4.58,0,0,1,415.16,53Zm-39.67-5.74c6.45-1,12.43-1.94,18.41-2.85,1.19-.18,2.57-.19,2.39-1.88-.16-1.53-1.2-2-2.72-1.81-4.58.65-9.17,1.22-13.75,1.84-1.33.18-2.81.13-3.92.74-.78.43-1.2,1.76-1.46,2.77C374.35,46.43,375.24,47,375.49,47.29Z"/>
        <path class="cls-1" d="M170.3.93c-.58,2.84-1.13,5.54-1.7,8.36,2.47-.21,4.29-.42,6.12-.5,1.48-.07,2-.77,1.54-2.12-.65-1.89-1.38-3.75-2.08-5.62,4.68-1,5.35-.69,5.84,3.8a148.9,148.9,0,0,1,.81,15.08c0,3.78-.21,3.78-4.1,3.67-.41,0-.82-.06-1.52-.11.54-2.16,1.11-4.13,1.51-6.13.67-3.42.08-4.7-2.11-4.89-3.36-.29-6,1.69-5.85,4.7a56.92,56.92,0,0,0,.85,6.24.23.23,0,0,1-.11.07c-5.05.58-5.18.58-5.18-4.43,0-4.7.21-9.41.53-14.11C165.15.48,165.48.32,170.3.93Z"/>
        <path class="cls-1" d="M198.32.7l-2.11,4.42a29.57,29.57,0,0,0-3-1c-2.38-.56-4.52.59-5,2.62s.18,2.65,2.19,2.12c1.48-.39,3-.7,5.23-1.22-.84,2.31-1.4,3.81-2,5.44-2.28-.69-4.56-1-5.42,1.35-.49,1.32-.31,3.63.56,4.57,2.3,2.48,4.77.36,7.56-.78.71,1.7,1.41,3.38,2.27,5.41-4.81,0-9.09.06-13.37-.08a2.28,2.28,0,0,1-1.55-1.65q.65-9.81,1.65-19.58A2.44,2.44,0,0,1,187.11.77C190.63.62,194.15.7,198.32.7Z"/>
        <path class="cls-1" d="M157.26,23.61a16.1,16.1,0,0,1-4.09-.1,2.69,2.69,0,0,1-1.53-2.06c0-4.27.18-8.54.37-12.81.06-1.31.33-2.61.51-3.92L152,4.14l-5.9,3.17c-.73-3.89.46-6.08,4.11-6.53a33.82,33.82,0,0,1,9,0c4.27.64,4.6,1.8,2.28,5.5a1.08,1.08,0,0,1-.48,0c-1.14-.59-2.28-1.21-3.41-1.81C157,5.73,156,7,156.06,8.24c.1,4.52.54,9,.86,13.53A17,17,0,0,0,157.26,23.61Z"/>
        <path class="cls-1" d="M466.93,18.3c-1.91-1.62-3.87-3.08-5.55-4.8A8.16,8.16,0,0,1,459.52,10a5,5,0,0,1,1.9-5.63c2-1.42,3.83-.24,5.52,1.28.32-.22.66-.42,1-.65,2.11-1.62,4.17-1.75,5.72-.34a4.47,4.47,0,0,1,.59,6,58.21,58.21,0,0,1-5,5.27C468.48,16.64,467.8,17.38,466.93,18.3Z"/>
        <path class="cls-1" d="M489.16,76.63c-1.91,1.75-3.8,2.25-5.74.48a4.6,4.6,0,0,1-.32-6.23c1.71-2.35,3.78-4.45,5.92-6.92a79.6,79.6,0,0,1,6.1,6.08,9,9,0,0,1,1.65,4.36,3.65,3.65,0,0,1-2.41,4C492.25,79.29,490.6,78.6,489.16,76.63Z"/>
        <path class="cls-1" d="M485.64,14.41c-2.07-1.83-4.05-3.38-5.79-5.16a4.71,4.71,0,0,1-.77-5.81c1.53-3,3.91-3.25,7.26-.77C488.56.47,490.25.13,492,1.53a4.54,4.54,0,0,1,.38,6.55C490.41,10.27,488.11,12.11,485.64,14.41Z"/>
        <path class="cls-1" d="M456,64.77c2,2.7,4.17,5,5.65,7.75a4.6,4.6,0,0,1-.73,4.24c-.85.88-2.79.73-4.26,1a17.17,17.17,0,0,1-2.14.28c-1.49.09-3.14.56-4.43.07a3.42,3.42,0,0,1-1.95-4.42,12.33,12.33,0,0,1,2.46-4.25A59.73,59.73,0,0,1,456,64.77Z"/>
        <path class="cls-1" d="M471.44,76.2c-2.59,2-4.64,2.15-6.21.63s-1.75-4.19,0-6.45,3.87-4.4,4.87-5.52a71.23,71.23,0,0,1,6.79,5.1c2.16,2.06,2.15,4.1.53,6C476,77.68,474.14,77.77,471.44,76.2Z"/>
      </g>
    </g>
  </g>
</svg>
